<svg id="visual" viewBox="0 0 960 150" width="960" height="150" xmlns="http://www.w3.org/2000/svg" xmlns:xlink="http://www.w3.org/1999/xlink" version="1.1"><path d="M0 49L22.8 46.5C45.7 44 91.3 39 137 35.2C182.7 31.3 228.3 28.7 274 29.5C319.7 30.3 365.3 34.7 411.2 37.2C457 39.7 503 40.3 548.8 38.5C594.7 36.7 640.3 32.3 686 33.2C731.7 34 777.3 40 823 46.5C868.7 53 914.3 60 937.2 63.5L960 67L960 151L937.2 151C914.3 151 868.7 151 823 151C777.3 151 731.7 151 686 151C640.3 151 594.7 151 548.8 151C503 151 457 151 411.2 151C365.3 151 319.7 151 274 151C228.3 151 182.7 151 137 151C91.3 151 45.7 151 22.8 151L0 151Z" fill="#330579"></path><path d="M0 81L22.8 78C45.7 75 91.3 69 137 65.7C182.7 62.3 228.3 61.7 274 59.7C319.7 57.7 365.3 54.3 411.2 57.8C457 61.3 503 71.7 548.8 71.3C594.7 71 640.3 60 686 57.5C731.7 55 777.3 61 823 66.7C868.7 72.3 914.3 77.7 937.2 80.3L960 83L960 151L937.2 151C914.3 151 868.7 151 823 151C777.3 151 731.7 151 686 151C640.3 151 594.7 151 548.8 151C503 151 457 151 411.2 151C365.3 151 319.7 151 274 151C228.3 151 182.7 151 137 151C91.3 151 45.7 151 22.8 151L0 151Z" fill="#141869"></path><path d="M0 102L22.8 97.5C45.7 93 91.3 84 137 81.2C182.7 78.3 228.3 81.7 274 83.3C319.7 85 365.3 85 411.2 87.7C457 90.3 503 95.7 548.8 93.3C594.7 91 640.3 81 686 80C731.7 79 777.3 87 823 88.2C868.7 89.3 914.3 83.7 937.2 80.8L960 78L960 151L937.2 151C914.3 151 868.7 151 823 151C777.3 151 731.7 151 686 151C640.3 151 594.7 151 548.8 151C503 151 457 151 411.2 151C365.3 151 319.7 151 274 151C228.3 151 182.7 151 137 151C91.3 151 45.7 151 22.8 151L0 151Z" fill="#001c54"></path><path d="M0 105L22.8 106.7C45.7 108.3 91.3 111.7 137 112C182.7 112.3 228.3 109.7 274 107C319.7 104.3 365.3 101.7 411.2 100.7C457 99.7 503 100.3 548.8 100C594.7 99.7 640.3 98.3 686 98.3C731.7 98.3 777.3 99.7 823 102.3C868.7 105 914.3 109 937.2 111L960 113L960 151L937.2 151C914.3 151 868.7 151 823 151C777.3 151 731.7 151 686 151C640.3 151 594.7 151 548.8 151C503 151 457 151 411.2 151C365.3 151 319.7 151 274 151C228.3 151 182.7 151 137 151C91.3 151 45.7 151 22.8 151L0 151Z" fill="#00193b"></path><path d="M0 112L22.8 114C45.7 116 91.3 120 137 123.5C182.7 127 228.3 130 274 130.5C319.7 131 365.3 129 411.2 128.8C457 128.7 503 130.3 548.8 130.2C594.7 130 640.3 128 686 124.8C731.7 121.7 777.3 117.3 823 117C868.7 116.7 914.3 120.3 937.2 122.2L960 124L960 151L937.2 151C914.3 151 868.7 151 823 151C777.3 151 731.7 151 686 151C640.3 151 594.7 151 548.8 151C503 151 457 151 411.2 151C365.3 151 319.7 151 274 151C228.3 151 182.7 151 137 151C91.3 151 45.7 151 22.8 151L0 151Z" fill="#001220"></path></svg>